<?xml version="1.0" encoding="UTF-8"?>
<svg version="1.1" xmlns="http://www.w3.org/2000/svg" width="192" height="192">
<path d="M0 0 C63.36 0 126.72 0 192 0 C192 63.36 192 126.72 192 192 C128.64 192 65.28 192 0 192 C0 128.64 0 65.28 0 0 Z " fill="#8F94FA" transform="translate(0,0)"/>
<path d="M0 0 C50.36842105 0 50.36842105 0 59 8 C63.04013861 13.95785774 65.37266902 19.79663594 64 27 C62.37898509 32.10167128 60.34319431 36.67021769 56 40 C55.34 40 54.68 40 54 40 C54 40.66 54 41.32 54 42 C54.721875 42.20625 55.44375 42.4125 56.1875 42.625 C60.34528718 44.65769595 62.91410244 47.82820488 65 52 C66.22421391 68.41650786 66.22421391 68.41650786 61 75 C55.09780065 81.33406759 47.5659151 83.95192166 38.98071289 84.32128906 C33.08795362 84.43962627 27.20560171 84.34768169 21.3125 84.25 C14.279375 84.1675 7.24625 84.085 0 84 C0 56.28 0 28.56 0 0 Z " fill="#345F89" transform="translate(102,54)"/>
<path d="M0 0 C48.66666667 0 48.66666667 0 60.625 10.25 C66.00222566 16.47626129 68.37957655 23.31808767 68.28515625 31.4921875 C67.55429436 37.91976742 64.65566693 44.48541389 60 49 C57.25 50.3125 57.25 50.3125 55 51 C55 51.66 55 52.32 55 53 C53.64870353 53.48720213 52.29375684 53.96428184 50.9375 54.4375 C50.18339844 54.70433594 49.42929688 54.97117188 48.65234375 55.24609375 C42.48371361 56.99947463 36.41485531 57.13270207 30.0625 57.0625 C26.0715625 57.0315625 26.0715625 57.0315625 22 57 C22 66.57 22 76.14 22 86 C14.74 86 7.48 86 0 86 C0 57.62 0 29.24 0 0 Z " fill="#345E88" transform="translate(24,53)"/>
<path d="M0 0 C2.51625 -0.0825 5.0325 -0.165 7.625 -0.25 C8.79603271 -0.30462402 8.79603271 -0.30462402 9.99072266 -0.36035156 C15.11276892 -0.44097275 17.92039704 0.66666588 22 4 C24.3788114 7.02757815 24.35978528 10.244687 24.25390625 14.03515625 C23.87642532 16.95627792 22.85858628 18.74314524 21 21 C17.13589293 23.78215709 12.79506292 23.2222344 8.25 23.125 C4.16625 23.063125 4.16625 23.063125 0 23 C0 15.41 0 7.82 0 0 Z " fill="#7C9AF9" transform="translate(46,70)"/>
<path d="M0 0 C2.701875 -0.061875 5.40375 -0.12375 8.1875 -0.1875 C9.02949951 -0.21481201 9.87149902 -0.24212402 10.73901367 -0.27026367 C15.31952096 -0.32089807 18.28298447 0.01917007 22 3 C23.12992055 5.25984109 23.29799956 6.79726487 23.4375 9.3125 C23.49808594 10.07175781 23.55867188 10.83101562 23.62109375 11.61328125 C22.83659301 14.62793505 21.33310755 16.15972103 18.87817383 18.02954102 C15.40426648 19.82452109 11.94130696 19.52107162 8.125 19.3125 C4.103125 19.1578125 4.103125 19.1578125 0 19 C0 12.73 0 6.46 0 0 Z " fill="#A18DF9" transform="translate(123,103)"/>
<path d="M0 0 C39 0 39 0 47 2 C43.822819 2.79429525 41.92362227 3.10898951 38.78222656 3.02172852 C37.5343335 2.99109314 37.5343335 2.99109314 36.26123047 2.95983887 C35.39643066 2.9331311 34.53163086 2.90642334 33.640625 2.87890625 C32.83866699 2.85824097 32.03670898 2.83757568 31.21044922 2.81628418 C28.22346858 2.7377017 25.2367464 2.64953148 22.25 2.5625 C12.22625 2.2840625 12.22625 2.2840625 2 2 C2 29.06 2 56.12 2 84 C7.94 84 13.88 84 20 84 C20 74.76 20 65.52 20 56 C26.27 56 32.54 56 39 56 C39 56.33 39 56.66 39 57 C33.39 57 27.78 57 22 57 C22 66.57 22 76.14 22 86 C14.74 86 7.48 86 0 86 C0 57.62 0 29.24 0 0 Z " fill="#4678A4" transform="translate(24,53)"/>
<path d="M0 0 C3.5578125 -0.0928125 3.5578125 -0.0928125 7.1875 -0.1875 C8.29387817 -0.22846802 8.29387817 -0.22846802 9.42260742 -0.27026367 C13.827366 -0.32558339 16.5179177 0.29171377 20 3 C21.15638891 5.31277781 21.19868928 6.80091221 21.25 9.375 C21.27578125 10.14585938 21.3015625 10.91671875 21.328125 11.7109375 C20.88328602 14.81421899 20.43100897 15.96108925 18 18 C14.9216965 18.49660084 11.92009632 18.37402945 8.8125 18.25 C4.4503125 18.12625 4.4503125 18.12625 0 18 C0 12.06 0 6.12 0 0 Z " fill="#9591F9" transform="translate(123,70)"/>
</svg>
